<?xml version="1.0" encoding="UTF-8"?>
<svg id="Layer_2" data-name="Layer 2" xmlns="http://www.w3.org/2000/svg" viewBox="0 0 285.24 63.57">
  <defs>
    <style>
      .cls-1 {
        fill: #f9f9f9;
      }
    </style>
  </defs>
  <polygon class="cls-1" points="14.19 23.35 2.78 21.52 7.4 15.08 16.52 17.42 14.19 23.35"/>
  <polygon class="cls-1" points="25.23 52.99 14.3 38.42 2.78 23.12 8.39 24.03 14.07 24.94 18.84 36.75 25.23 52.99"/>
  <polygon class="cls-1" points="43.26 23.35 54.67 21.52 50.05 15.08 41.16 17.36 43.26 23.35"/>
  <polygon class="cls-1" points="32.22 52.99 43.15 38.42 54.67 23.12 49.06 24.03 43.38 24.94 38.61 36.75 32.22 52.99"/>
  <polygon class="cls-1" points="41.36 23.53 16.18 23.53 18.3 17.56 39.58 17.56 41.36 23.53"/>
  <polygon class="cls-1" points="28.75 56.59 22.51 40.82 16.28 25.05 28.75 25.05 41.22 25.05 34.98 40.82 28.75 56.59"/>
  <polygon class="cls-1" points="39.89 10.39 17.74 10.39 9.93 13.82 17.89 15.88 40.05 15.88 47.82 13.87 39.89 10.39"/>
  <path class="cls-1" d="m85.6,47.96c-2.92,0-5.37-.57-7.29-1.68-1.38-.81-2.51-1.91-3.37-3.27-.87-1.37-1.31-2.73-1.31-4.05,0-.85.3-1.59.89-2.2.6-.61,1.36-.92,2.27-.92.75,0,1.41.25,1.93.74.49.45.89,1.09,1.23,1.95.35.87.72,1.6,1.12,2.18.37.54.89.98,1.59,1.34.69.35,1.62.53,2.78.53,1.59,0,2.89-.37,3.86-1.09.94-.7,1.39-1.53,1.39-2.56,0-.81-.23-1.44-.71-1.93-.52-.53-1.2-.94-2.03-1.22-.9-.31-2.12-.64-3.63-.98-2.09-.49-3.87-1.07-5.29-1.73-1.47-.68-2.66-1.63-3.52-2.82-.88-1.21-1.33-2.72-1.33-4.49s.47-3.21,1.39-4.53c.92-1.31,2.26-2.33,3.99-3.03,1.69-.68,3.7-1.03,5.96-1.03,1.82,0,3.42.23,4.75.69,1.34.46,2.48,1.08,3.38,1.84.9.77,1.57,1.6,2,2.46.43.87.64,1.74.64,2.57s-.29,1.58-.87,2.24c-.6.68-1.36,1.02-2.25,1.02-.81,0-1.45-.22-1.9-.66-.39-.38-.79-.96-1.23-1.77-.49-1.03-1.08-1.82-1.74-2.37-.63-.52-1.69-.78-3.17-.78-1.38,0-2.49.3-3.31.88-.77.55-1.15,1.18-1.15,1.93,0,.46.12.83.36,1.16.27.35.64.66,1.11.92.51.28,1.04.5,1.56.66.56.17,1.48.42,2.76.74,1.62.38,3.12.81,4.44,1.27,1.36.47,2.53,1.06,3.49,1.74.99.7,1.77,1.6,2.33,2.68.55,1.07.84,2.39.84,3.93,0,1.84-.48,3.51-1.43,4.98-.95,1.47-2.35,2.63-4.16,3.46-1.79.81-3.93,1.22-6.36,1.22Z"/>
  <path class="cls-1" d="m113.69,47.96c-2.92,0-5.37-.57-7.29-1.68-1.38-.81-2.51-1.91-3.37-3.27-.87-1.37-1.31-2.73-1.31-4.05,0-.85.3-1.59.89-2.2.6-.61,1.36-.92,2.27-.92.75,0,1.41.25,1.93.74.49.45.89,1.09,1.23,1.95.34.86.72,1.6,1.12,2.18.37.54.89.98,1.59,1.34.69.35,1.62.53,2.78.53,1.59,0,2.89-.37,3.87-1.09.94-.7,1.39-1.53,1.39-2.56,0-.81-.23-1.44-.71-1.93-.52-.53-1.2-.94-2.03-1.22-.9-.31-2.12-.64-3.63-.98-2.09-.49-3.87-1.07-5.29-1.73-1.47-.68-2.66-1.63-3.52-2.82-.88-1.21-1.33-2.72-1.33-4.49s.47-3.21,1.39-4.53c.92-1.31,2.26-2.33,3.99-3.03,1.69-.68,3.7-1.03,5.96-1.03,1.82,0,3.42.23,4.75.69,1.34.46,2.48,1.08,3.38,1.84.9.77,1.57,1.6,2,2.46.43.87.64,1.74.64,2.57s-.29,1.58-.87,2.24c-.6.68-1.36,1.02-2.25,1.02-.81,0-1.45-.22-1.9-.66-.39-.38-.79-.96-1.23-1.77-.49-1.03-1.08-1.82-1.74-2.37-.63-.52-1.69-.78-3.17-.78-1.38,0-2.49.3-3.31.88-.77.55-1.15,1.18-1.15,1.93,0,.46.12.83.36,1.16.27.35.64.66,1.11.92.51.28,1.04.5,1.56.66.56.17,1.48.42,2.76.74,1.62.38,3.12.81,4.44,1.27,1.36.47,2.53,1.06,3.49,1.74.99.7,1.77,1.6,2.33,2.68.55,1.07.84,2.39.84,3.93,0,1.84-.48,3.51-1.43,4.98-.95,1.47-2.35,2.63-4.16,3.46-1.79.81-3.93,1.22-6.36,1.22Z"/>
  <path class="cls-1" d="m144.79,47.96c-2.26,0-4.35-.35-6.22-1.05-1.88-.7-3.51-1.74-4.84-3.09-1.33-1.34-2.36-2.99-3.07-4.9-.7-1.89-1.06-4.03-1.06-6.36s.35-4.41,1.03-6.32c.69-1.93,1.73-3.58,3.07-4.92,1.34-1.34,2.99-2.38,4.92-3.09,1.91-.7,4.09-1.06,6.5-1.06,1.99,0,3.77.27,5.31.8,1.54.53,2.82,1.22,3.8,2.05.98.83,1.72,1.72,2.23,2.65.52.97.77,1.82.77,2.59,0,.89-.33,1.65-.98,2.27-1.01.96-2.49,1.23-3.79.57-.46-.23-.85-.57-1.16-.99-.72-1.12-1.31-1.96-1.79-2.51-.44-.51-1.06-.95-1.82-1.31-.76-.36-1.77-.54-2.99-.54s-2.4.22-3.38.65c-.97.43-1.82,1.06-2.51,1.87-.7.82-1.24,1.84-1.61,3.04-.38,1.22-.57,2.59-.57,4.08,0,3.22.74,5.71,2.19,7.41,1.45,1.7,3.43,2.52,6.05,2.52,1.29,0,2.51-.17,3.63-.5,1.05-.31,2.12-.75,3.19-1.31v-3.77h-3.94c-1.19,0-2.09-.19-2.74-.57-.5-.3-1.11-.91-1.11-2.14,0-.8.3-1.47.88-2,.57-.51,1.33-.77,2.26-.77h6.6c.85,0,1.59.08,2.19.23.69.18,1.26.57,1.68,1.18.42.6.62,1.43.62,2.55v5.5c0,.8-.08,1.43-.24,1.93-.17.53-.49,1.01-.95,1.42-.41.38-.95.75-1.59,1.1-1.77.96-3.49,1.66-5.13,2.1-1.65.44-3.46.67-5.39.67Z"/>
  <path class="cls-1" d="m181.94,47.39h-14.04c-1.42,0-2.47-.34-3.13-1.01-.66-.67-.99-1.71-.99-3.11v-22.1c0-1.31.31-2.33.94-3.02.63-.71,1.47-1.06,2.5-1.06s1.88.35,2.53,1.05c.64.68.96,1.7.96,3.03v20.33h11.23c1.08,0,1.93.28,2.54.83s.94,1.28.94,2.13-.31,1.59-.93,2.13c-.6.53-1.45.79-2.54.79Z"/>
  <path class="cls-1" d="m215.6,24.44c-1.14-2.32-2.85-4.13-5.07-5.39-2.21-1.25-4.88-1.88-7.94-1.88-2.25,0-4.3.36-6.08,1.07-1.8.72-3.34,1.76-4.59,3.11-1.25,1.34-2.22,2.99-2.87,4.9-.65,1.89-.98,3.99-.98,6.25s.32,4.29.94,6.18c.63,1.92,1.57,3.59,2.81,4.96,1.24,1.37,2.8,2.45,4.65,3.2,1.83.75,3.93,1.13,6.24,1.13s4.41-.37,6.22-1.1c1.82-.73,3.38-1.81,4.63-3.2,1.25-1.38,2.2-3.04,2.82-4.91.62-1.86.93-3.96.93-6.22,0-3.07-.57-5.8-1.7-8.09Zm-5.85,13.78c-.74,1.55-1.73,2.7-2.98,3.45-1.25.74-2.61,1.12-4.1,1.12-1.16,0-2.23-.22-3.2-.65-.97-.43-1.83-1.08-2.58-1.95-.75-.87-1.33-1.96-1.74-3.28-.41-1.32-.62-2.79-.62-4.43s.2-3.08.62-4.38c.41-1.3.97-2.37,1.68-3.2.71-.84,1.56-1.47,2.55-1.91.98-.44,2.06-.66,3.22-.66,1.63,0,3.08.39,4.34,1.18,1.26.79,2.23,1.95,2.91,3.49s1.02,3.36,1.02,5.46c0,2.27-.37,4.18-1.11,5.74Z"/>
  <path class="cls-1" d="m247.46,47.96c-1.02,0-1.85-.27-2.49-.79-.61-.5-1.04-1.08-1.28-1.73-.22-.57-.51-1.52-.9-2.89h0s-4.1-15.23-4.1-15.23l-4.16,15.23c-.38,1.34-.67,2.27-.89,2.86-.25.66-.68,1.25-1.29,1.76-.64.54-1.47.81-2.49.81-.81,0-1.5-.16-2.05-.48-.55-.32-.99-.77-1.33-1.34-.31-.53-.57-1.16-.76-1.88-.18-.68-.35-1.3-.49-1.88l-4.78-19.32c-.3-1.17-.45-2.05-.45-2.7,0-.9.32-1.66.95-2.28.63-.61,1.41-.92,2.33-.92,1.27,0,2.15.44,2.62,1.31.4.73.73,1.75,1.02,3.1l3.26,14.55,3.62-13.5c.32-1.21.61-2.16.86-2.8.28-.71.75-1.33,1.38-1.85.66-.54,1.55-.81,2.64-.81s2,.29,2.65.85c.61.54,1.04,1.13,1.28,1.78.21.58.5,1.53.86,2.83l3.66,13.51,3.27-14.56c.18-.87.36-1.58.53-2.11.19-.58.52-1.11.98-1.56.5-.49,1.22-.75,2.12-.75s1.68.3,2.31.91c.64.61.97,1.38.97,2.29,0,.58-.15,1.47-.45,2.7l-4.78,19.33c-.33,1.31-.61,2.29-.83,2.92-.25.69-.67,1.31-1.25,1.83-.62.55-1.48.83-2.55.83Z"/>
  <g>
    <path class="cls-1" d="m263.08,39.81c0-4.97,4.04-9,9.01-9,4.97,0,9,4.04,9,9.01,0,4.97-4.04,9-9,8.99-4.97,0-9-4.04-9-9.01Zm1.83,0c0,3.96,3.21,7.17,7.17,7.18,3.96,0,7.18-3.21,7.18-7.17,0-3.96-3.21-7.17-7.17-7.18-3.96,0-7.18,3.21-7.18,7.17Z"/>
    <path class="cls-1" d="m276.64,44.32h-.09c-.8,0-1.61,0-2.41,0-.06,0-.09-.02-.12-.07-.39-.8-.78-1.59-1.18-2.39-.09-.18-.21-.35-.32-.52-.23-.32-.55-.52-.94-.56-.33-.03-.67-.03-1.01-.04v3.57h-2.43v-9.41s.04,0,.06,0c1.28,0,2.55,0,3.83,0,.62,0,1.23.07,1.82.27.38.13.73.32,1.01.62.3.32.46.72.52,1.15.07.48.06.96-.07,1.43-.18.63-.59,1.06-1.17,1.34-.16.08-.33.14-.5.21.21.06.41.15.59.28.34.24.6.57.79.93.27.49.51.99.76,1.49.27.54.53,1.08.8,1.61.01.02.02.05.04.09Zm-6.07-7.66v2.42c.41,0,.82,0,1.22,0,.15,0,.3-.03.45-.07.37-.09.62-.32.72-.7.06-.22.06-.45.04-.67-.02-.17-.06-.33-.15-.48-.16-.28-.42-.39-.72-.44-.52-.09-1.04-.03-1.56-.05Z"/>
  </g>
</svg>